<svg width="1920" height="800" viewBox="0 0 1920 800" fill="none" xmlns="http://www.w3.org/2000/svg">
  <!-- Изба -->
  <g transform="translate(700, 400)">
    <!-- Крыша -->
    <polygon points="100,0 0,80 200,80" fill="#8B4513"/>
    <polygon points="100,0 200,80 220,70 120,-10" fill="#A0522D"/>
    <!-- Стены -->
    <rect x="10" y="80" width="180" height="150" fill="#D2691E"/>
    <line x1="10" y1="100" x2="190" y2="100" stroke="#8B4513" stroke-width="2"/>
    <line x1="10" y1="120" x2="190" y2="120" stroke="#8B4513" stroke-width="2"/>
    <line x1="10" y1="140" x2="190" y2="140" stroke="#8B4513" stroke-width="2"/>
    <line x1="10" y1="160" x2="190" y2="160" stroke="#8B4513" stroke-width="2"/>
    <line x1="10" y1="180" x2="190" y2="180" stroke="#8B4513" stroke-width="2"/>
    <line x1="10" y1="200" x2="190" y2="200" stroke="#8B4513" stroke-width="2"/>
    <!-- Окна -->
    <rect x="30" y="110" width="40" height="40" fill="#87CEEB" stroke="#654321" stroke-width="3"/>
    <line x1="50" y1="110" x2="50" y2="150" stroke="#654321" stroke-width="2"/>
    <line x1="30" y1="130" x2="70" y2="130" stroke="#654321" stroke-width="2"/>
    
    <rect x="130" y="110" width="40" height="40" fill="#87CEEB" stroke="#654321" stroke-width="3"/>
    <line x1="150" y1="110" x2="150" y2="150" stroke="#654321" stroke-width="2"/>
    <line x1="130" y1="130" x2="170" y2="130" stroke="#654321" stroke-width="2"/>
    <!-- Дверь -->
    <rect x="80" y="160" width="40" height="70" fill="#654321" rx="2"/>
    <circle cx="110" cy="195" r="2" fill="#FFD700"/>
  </g>
  
  <!-- Забор -->
  <g opacity="0.9">
    <rect x="500" y="630" width="10" height="80" fill="#8B4513"/>
    <rect x="530" y="630" width="10" height="80" fill="#8B4513"/>
    <rect x="560" y="630" width="10" height="80" fill="#8B4513"/>
    <rect x="590" y="630" width="10" height="80" fill="#8B4513"/>
    <rect x="620" y="630" width="10" height="80" fill="#8B4513"/>
    <line x1="500" y1="650" x2="630" y2="650" stroke="#654321" stroke-width="4"/>
    <line x1="500" y1="680" x2="630" y2="680" stroke="#654321" stroke-width="4"/>
  </g>
</svg>
